<svg xmlns="http://www.w3.org/2000/svg" xmlns:xlink="http://www.w3.org/1999/xlink" width="500" zoomAndPan="magnify" viewBox="0 0 375 374.999991" height="500" preserveAspectRatio="xMidYMid meet" version="1.0"><defs><g/><clipPath id="795ee829af"><path d="M 145 121 L 260 121 L 260 329.941406 L 145 329.941406 Z M 145 121 " clip-rule="nonzero"/></clipPath><clipPath id="b2365fd36a"><path d="M 102.347656 89.941406 L 278.597656 89.941406 L 278.597656 245 L 102.347656 245 Z M 102.347656 89.941406 " clip-rule="nonzero"/></clipPath><clipPath id="622e1059b2"><path d="M 102.460938 114.039062 L 276.566406 114.039062 L 276.566406 281.75 L 102.460938 281.75 Z M 102.460938 114.039062 " clip-rule="nonzero"/></clipPath></defs><rect x="-37.5" width="450" fill="#ffffff" y="-37.499999" height="449.999989" fill-opacity="1"/><rect x="-37.5" width="450" fill="#ffffff" y="-37.499999" height="449.999989" fill-opacity="1"/><g clip-path="url(#795ee829af)"><path fill="#8ac0c8" d="M 259.910156 165.988281 L 259.910156 150.796875 L 253.945312 150.796875 L 253.945312 165.988281 Z M 246.398438 171.085938 L 246.398438 121.617188 L 240.429688 121.617188 L 240.429688 171.085938 Z M 232.886719 238.519531 L 232.886719 214.660156 L 226.917969 214.660156 L 226.917969 238.519531 Z M 219.371094 153.257812 L 219.371094 121.617188 L 213.402344 121.617188 L 213.402344 153.257812 Z M 205.859375 190.214844 L 205.859375 121.617188 L 199.894531 121.617188 L 199.894531 190.214844 Z M 199.894531 234.441406 L 199.894531 303.035156 L 205.859375 303.035156 L 205.859375 234.441406 Z M 165.320312 285.011719 L 159.351562 285.011719 L 159.351562 329.941406 L 165.320312 329.941406 Z M 159.351562 172.519531 L 159.351562 279.039062 L 165.320312 279.039062 L 165.320312 172.519531 Z M 145.839844 121.617188 L 145.839844 165.574219 L 151.804688 165.574219 L 151.804688 121.617188 L 145.839844 121.617188 " fill-opacity="1" fill-rule="nonzero"/></g><path fill="#18bd9c" d="M 246.398438 259.269531 L 246.398438 209.804688 L 240.429688 209.804688 L 240.429688 259.269531 Z M 232.886719 208.6875 L 232.886719 121.617188 L 226.917969 121.617188 L 226.917969 208.6875 Z M 186.378906 195.210938 L 186.378906 255.050781 L 192.34375 255.050781 L 192.34375 195.210938 Z M 165.320312 166.542969 L 165.320312 121.617188 L 159.351562 121.617188 L 159.351562 166.542969 Z M 151.804688 250.652344 L 145.839844 250.652344 L 145.839844 263.488281 L 151.804688 263.488281 Z M 132.328125 149.175781 L 132.328125 251.164062 L 138.292969 251.164062 L 138.292969 149.175781 L 132.328125 149.175781 " fill-opacity="1" fill-rule="nonzero"/><g clip-path="url(#b2365fd36a)"><path fill="#fcde82" d="M 267.457031 89.941406 L 267.457031 95.914062 L 273.421875 95.914062 L 273.421875 89.941406 Z M 253.945312 89.941406 L 253.945312 95.914062 L 259.910156 95.914062 L 259.910156 89.941406 Z M 246.398438 203.832031 L 246.398438 177.058594 L 240.429688 177.058594 L 240.429688 203.832031 Z M 240.429688 89.941406 L 240.429688 95.914062 L 246.398438 95.914062 L 246.398438 89.941406 Z M 226.917969 89.941406 L 226.917969 95.914062 L 232.886719 95.914062 L 232.886719 89.941406 Z M 219.371094 224.902344 L 219.371094 159.226562 L 213.402344 159.226562 L 213.402344 224.902344 Z M 213.402344 89.941406 L 213.402344 95.914062 L 219.371094 95.914062 L 219.371094 89.941406 Z M 199.894531 89.941406 L 199.894531 95.914062 L 205.859375 95.914062 L 205.859375 89.941406 Z M 192.34375 189.242188 L 192.34375 121.617188 L 186.378906 121.617188 L 186.378906 189.242188 Z M 186.378906 89.941406 L 186.378906 95.914062 L 192.34375 95.914062 L 192.34375 89.941406 Z M 172.867188 89.941406 L 172.867188 95.914062 L 178.832031 95.914062 L 178.832031 89.941406 Z M 159.351562 89.941406 L 159.351562 95.914062 L 165.320312 95.914062 L 165.320312 89.941406 Z M 151.804688 171.542969 L 145.839844 171.542969 L 145.839844 244.679688 L 151.804688 244.679688 Z M 145.839844 89.941406 L 145.839844 95.914062 L 151.804688 95.914062 L 151.804688 89.941406 Z M 132.328125 121.617188 L 132.328125 143.203125 L 138.292969 143.203125 L 138.292969 121.617188 Z M 132.328125 89.941406 L 132.328125 95.914062 L 138.292969 95.914062 L 138.292969 89.941406 Z M 118.816406 89.941406 L 118.816406 95.914062 L 124.78125 95.914062 L 124.78125 89.941406 Z M 102.945312 106.25 L 102.945312 109.167969 L 278.496094 109.167969 L 278.496094 106.25 L 102.945312 106.25 " fill-opacity="1" fill-rule="nonzero"/></g><g clip-path="url(#622e1059b2)"><path fill="#f49c10" d="M 259.910156 144.824219 L 259.910156 114.449219 L 253.945312 114.449219 L 253.945312 144.824219 Z M 232.886719 244.488281 L 226.917969 244.488281 L 226.917969 281.640625 L 232.886719 281.640625 Z M 199.894531 196.179688 L 199.894531 228.46875 L 205.859375 228.46875 L 205.859375 196.179688 Z M 172.867188 114.449219 L 172.867188 147.742188 L 178.832031 147.742188 L 178.832031 114.449219 Z M 124.78125 135.75 L 124.78125 114.449219 L 118.816406 114.449219 L 118.816406 135.75 Z M 264.714844 133.347656 C 264.714844 133.597656 264.808594 133.847656 265 134.035156 L 273.921875 142.96875 C 274.300781 143.347656 274.921875 143.347656 275.296875 142.96875 C 275.679688 142.589844 275.679688 141.972656 275.296875 141.59375 L 266.375 132.660156 C 265.992188 132.28125 265.378906 132.28125 265 132.660156 C 264.808594 132.851562 264.714844 133.101562 264.714844 133.347656 Z M 264.46875 125.929688 C 264.277344 126.117188 264.183594 126.367188 264.183594 126.617188 C 264.183594 126.863281 264.277344 127.113281 264.46875 127.304688 C 264.847656 127.6875 265.460938 127.6875 265.839844 127.304688 L 270.148438 122.992188 L 274.457031 127.304688 C 274.835938 127.683594 275.449219 127.683594 275.832031 127.304688 C 276.210938 126.925781 276.210938 126.308594 275.832031 125.929688 L 270.835938 120.925781 C 270.457031 120.550781 269.84375 120.550781 269.460938 120.925781 Z M 275.832031 149.96875 C 276.210938 149.585938 276.210938 148.972656 275.832031 148.59375 C 275.449219 148.214844 274.832031 148.214844 274.453125 148.59375 L 274.460938 148.59375 L 270.152344 152.902344 L 265.839844 148.59375 C 265.464844 148.214844 264.847656 148.214844 264.464844 148.59375 C 264.273438 148.78125 264.183594 149.035156 264.183594 149.28125 C 264.183594 149.527344 264.273438 149.777344 264.464844 149.96875 L 269.460938 154.96875 C 269.644531 155.152344 269.890625 155.25 270.148438 155.25 C 270.410156 155.25 270.65625 155.152344 270.839844 154.96875 Z M 114.109375 149.972656 C 114.492188 149.585938 114.492188 148.972656 114.109375 148.59375 C 113.730469 148.214844 113.113281 148.214844 112.734375 148.59375 L 108.425781 152.902344 L 104.121094 148.59375 C 103.742188 148.210938 103.125 148.210938 102.746094 148.59375 C 102.554688 148.78125 102.460938 149.03125 102.460938 149.28125 C 102.460938 149.527344 102.554688 149.777344 102.746094 149.972656 L 107.742188 154.96875 C 107.925781 155.152344 108.167969 155.25 108.425781 155.25 C 108.6875 155.25 108.933594 155.152344 109.117188 154.96875 Z M 114.109375 127.304688 C 114.488281 126.921875 114.488281 126.308594 114.109375 125.929688 L 114.113281 125.929688 L 109.117188 120.925781 C 108.734375 120.550781 108.121094 120.550781 107.742188 120.925781 L 102.746094 125.929688 C 102.558594 126.117188 102.464844 126.367188 102.464844 126.617188 C 102.464844 126.867188 102.554688 127.113281 102.742188 127.304688 C 103.125 127.6875 103.742188 127.6875 104.121094 127.304688 L 108.425781 122.992188 L 112.734375 127.304688 C 113.113281 127.6875 113.730469 127.6875 114.109375 127.304688 Z M 113.578125 141.59375 L 104.652344 132.660156 C 104.273438 132.28125 103.65625 132.28125 103.277344 132.660156 C 103.085938 132.851562 102.992188 133.101562 102.992188 133.347656 C 102.992188 133.597656 103.085938 133.847656 103.277344 134.039062 L 112.203125 142.96875 C 112.585938 143.347656 113.199219 143.347656 113.578125 142.96875 C 113.957031 142.589844 113.957031 141.972656 113.578125 141.59375 " fill-opacity="1" fill-rule="nonzero"/></g><g fill="#000000" fill-opacity="1"><g transform="translate(104.256365, 87.076521)"><g><path d="M 7.1875 -20.984375 C 8.851562 -20.984375 10.390625 -20.726562 11.796875 -20.21875 C 13.203125 -19.707031 14.414062 -18.984375 15.4375 -18.046875 C 16.457031 -17.117188 17.253906 -16 17.828125 -14.6875 C 18.410156 -13.382812 18.703125 -11.925781 18.703125 -10.3125 C 18.703125 -8.8125 18.441406 -7.429688 17.921875 -6.171875 C 17.398438 -4.910156 16.675781 -3.828125 15.75 -2.921875 C 14.820312 -2.015625 13.710938 -1.300781 12.421875 -0.78125 C 11.128906 -0.257812 9.71875 0 8.1875 0 L 8.1875 -5.03125 C 8.9375 -5.03125 9.628906 -5.179688 10.265625 -5.484375 C 10.910156 -5.785156 11.460938 -6.175781 11.921875 -6.65625 C 12.378906 -7.132812 12.734375 -7.6875 12.984375 -8.3125 C 13.234375 -8.945312 13.359375 -9.59375 13.359375 -10.25 C 13.359375 -12.050781 12.796875 -13.441406 11.671875 -14.421875 C 10.546875 -15.410156 8.960938 -15.914062 6.921875 -15.9375 L 6.921875 0 L 1.703125 0 L 1.703125 -20.984375 Z M 7.1875 -20.984375 "/></g></g></g><g fill="#000000" fill-opacity="1"><g transform="translate(124.242825, 87.076521)"><g><path d="M 17.078125 0 L 12.28125 0 L 12.28125 -6.828125 C 12.28125 -8.023438 12 -8.941406 11.4375 -9.578125 C 10.882812 -10.222656 10.039062 -10.546875 8.90625 -10.546875 C 8.457031 -10.546875 8.035156 -10.460938 7.640625 -10.296875 C 7.242188 -10.128906 6.894531 -9.90625 6.59375 -9.625 C 6.289062 -9.34375 6.050781 -9.003906 5.875 -8.609375 C 5.695312 -8.222656 5.609375 -7.8125 5.609375 -7.375 C 5.609375 -6.351562 5.910156 -5.535156 6.515625 -4.921875 C 7.128906 -4.316406 7.894531 -4.015625 8.8125 -4.015625 C 9.25 -4.015625 9.65625 -4.050781 10.03125 -4.125 C 10.414062 -4.207031 10.769531 -4.3125 11.09375 -4.4375 L 11.09375 -0.484375 C 10.632812 -0.160156 10.144531 0.0546875 9.625 0.171875 C 9.101562 0.296875 8.515625 0.359375 7.859375 0.359375 C 6.953125 0.359375 6.070312 0.175781 5.21875 -0.1875 C 4.375 -0.5625 3.628906 -1.082031 2.984375 -1.75 C 2.335938 -2.414062 1.8125 -3.210938 1.40625 -4.140625 C 1.007812 -5.078125 0.8125 -6.113281 0.8125 -7.25 C 0.8125 -8.332031 1.007812 -9.335938 1.40625 -10.265625 C 1.8125 -11.191406 2.363281 -12 3.0625 -12.6875 C 3.757812 -13.375 4.597656 -13.914062 5.578125 -14.3125 C 6.554688 -14.71875 7.632812 -14.921875 8.8125 -14.921875 C 10.070312 -14.921875 11.207031 -14.742188 12.21875 -14.390625 C 13.238281 -14.046875 14.109375 -13.5625 14.828125 -12.9375 C 15.546875 -12.320312 16.097656 -11.585938 16.484375 -10.734375 C 16.878906 -9.890625 17.078125 -8.96875 17.078125 -7.96875 Z M 17.078125 0 "/></g></g></g><g fill="#000000" fill-opacity="1"><g transform="translate(142.551263, 87.076521)"><g><path d="M 5.78125 -18.15625 L 5.78125 -14.6875 L 9.171875 -14.6875 L 9.171875 -10.3125 L 5.75 -10.3125 L 5.75 -6.40625 C 5.75 -5.65625 5.914062 -5.128906 6.25 -4.828125 C 6.582031 -4.523438 7.238281 -4.375 8.21875 -4.375 C 8.375 -4.375 8.53125 -4.378906 8.6875 -4.390625 C 8.851562 -4.398438 9.035156 -4.414062 9.234375 -4.4375 L 9.234375 0 L 6.40625 0 C 5.59375 0 4.859375 -0.125 4.203125 -0.375 C 3.554688 -0.625 3.007812 -0.976562 2.5625 -1.4375 C 2.113281 -1.894531 1.765625 -2.441406 1.515625 -3.078125 C 1.265625 -3.722656 1.140625 -4.4375 1.140625 -5.21875 L 1.140625 -18.15625 Z M 5.78125 -18.15625 "/></g></g></g><g fill="#000000" fill-opacity="1"><g transform="translate(152.52951, 87.076521)"><g><path d="M 17.078125 0 L 12.28125 0 L 12.28125 -6.828125 C 12.28125 -8.023438 12 -8.941406 11.4375 -9.578125 C 10.882812 -10.222656 10.039062 -10.546875 8.90625 -10.546875 C 8.457031 -10.546875 8.035156 -10.460938 7.640625 -10.296875 C 7.242188 -10.128906 6.894531 -9.90625 6.59375 -9.625 C 6.289062 -9.34375 6.050781 -9.003906 5.875 -8.609375 C 5.695312 -8.222656 5.609375 -7.8125 5.609375 -7.375 C 5.609375 -6.351562 5.910156 -5.535156 6.515625 -4.921875 C 7.128906 -4.316406 7.894531 -4.015625 8.8125 -4.015625 C 9.25 -4.015625 9.65625 -4.050781 10.03125 -4.125 C 10.414062 -4.207031 10.769531 -4.3125 11.09375 -4.4375 L 11.09375 -0.484375 C 10.632812 -0.160156 10.144531 0.0546875 9.625 0.171875 C 9.101562 0.296875 8.515625 0.359375 7.859375 0.359375 C 6.953125 0.359375 6.070312 0.175781 5.21875 -0.1875 C 4.375 -0.5625 3.628906 -1.082031 2.984375 -1.75 C 2.335938 -2.414062 1.8125 -3.210938 1.40625 -4.140625 C 1.007812 -5.078125 0.8125 -6.113281 0.8125 -7.25 C 0.8125 -8.332031 1.007812 -9.335938 1.40625 -10.265625 C 1.8125 -11.191406 2.363281 -12 3.0625 -12.6875 C 3.757812 -13.375 4.597656 -13.914062 5.578125 -14.3125 C 6.554688 -14.71875 7.632812 -14.921875 8.8125 -14.921875 C 10.070312 -14.921875 11.207031 -14.742188 12.21875 -14.390625 C 13.238281 -14.046875 14.109375 -13.5625 14.828125 -12.9375 C 15.546875 -12.320312 16.097656 -11.585938 16.484375 -10.734375 C 16.878906 -9.890625 17.078125 -8.96875 17.078125 -7.96875 Z M 17.078125 0 "/></g></g></g><g fill="#000000" fill-opacity="1"><g transform="translate(170.837948, 87.076521)"><g><path d="M 9.984375 -20.984375 L 9.984375 -7.875 C 9.984375 -6.894531 9.914062 -5.976562 9.78125 -5.125 C 9.65625 -4.28125 9.453125 -3.570312 9.171875 -3 C 8.929688 -2.5 8.632812 -2.0625 8.28125 -1.6875 C 7.9375 -1.320312 7.460938 -1.015625 6.859375 -0.765625 C 6.265625 -0.515625 5.5 -0.320312 4.5625 -0.1875 C 3.632812 -0.0625 2.453125 0 1.015625 0 L 0 0 L 0 -5.03125 L 2.21875 -5.03125 C 3.195312 -5.03125 3.863281 -5.1875 4.21875 -5.5 C 4.582031 -5.8125 4.765625 -6.363281 4.765625 -7.15625 L 4.765625 -20.984375 Z M 9.984375 -20.984375 "/></g></g></g><g fill="#000000" fill-opacity="1"><g transform="translate(182.494222, 87.076521)"><g><path d="M 15.859375 -7.28125 C 15.859375 -6.257812 15.65625 -5.289062 15.25 -4.375 C 14.851562 -3.457031 14.3125 -2.644531 13.625 -1.9375 C 12.9375 -1.226562 12.132812 -0.664062 11.21875 -0.25 C 10.3125 0.15625 9.347656 0.359375 8.328125 0.359375 C 7.304688 0.359375 6.34375 0.15625 5.4375 -0.25 C 4.53125 -0.664062 3.734375 -1.226562 3.046875 -1.9375 C 2.359375 -2.644531 1.8125 -3.457031 1.40625 -4.375 C 1.007812 -5.289062 0.8125 -6.257812 0.8125 -7.28125 C 0.8125 -8.300781 1.007812 -9.269531 1.40625 -10.1875 C 1.8125 -11.101562 2.359375 -11.910156 3.046875 -12.609375 C 3.734375 -13.316406 4.53125 -13.878906 5.4375 -14.296875 C 6.34375 -14.710938 7.304688 -14.921875 8.328125 -14.921875 C 9.367188 -14.921875 10.34375 -14.710938 11.25 -14.296875 C 12.15625 -13.878906 12.945312 -13.3125 13.625 -12.59375 C 14.3125 -11.882812 14.851562 -11.070312 15.25 -10.15625 C 15.65625 -9.238281 15.859375 -8.28125 15.859375 -7.28125 Z M 8.328125 -4.203125 C 8.742188 -4.203125 9.132812 -4.285156 9.5 -4.453125 C 9.863281 -4.617188 10.171875 -4.847656 10.421875 -5.140625 C 10.679688 -5.429688 10.878906 -5.757812 11.015625 -6.125 C 11.160156 -6.5 11.234375 -6.882812 11.234375 -7.28125 C 11.234375 -7.675781 11.160156 -8.054688 11.015625 -8.421875 C 10.878906 -8.796875 10.6875 -9.128906 10.4375 -9.421875 C 10.1875 -9.710938 9.875 -9.941406 9.5 -10.109375 C 9.132812 -10.285156 8.734375 -10.375 8.296875 -10.375 C 7.878906 -10.375 7.492188 -10.285156 7.140625 -10.109375 C 6.796875 -9.941406 6.492188 -9.710938 6.234375 -9.421875 C 5.972656 -9.128906 5.769531 -8.796875 5.625 -8.421875 C 5.488281 -8.054688 5.421875 -7.675781 5.421875 -7.28125 C 5.421875 -6.882812 5.488281 -6.5 5.625 -6.125 C 5.769531 -5.757812 5.972656 -5.429688 6.234375 -5.140625 C 6.492188 -4.847656 6.800781 -4.617188 7.15625 -4.453125 C 7.519531 -4.285156 7.910156 -4.203125 8.328125 -4.203125 Z M 8.328125 -4.203125 "/></g></g></g><g fill="#000000" fill-opacity="1"><g transform="translate(199.154602, 87.076521)"><g><path d="M 5.84375 -14.5625 L 5.84375 -6.140625 C 5.84375 -5.578125 5.984375 -5.113281 6.265625 -4.75 C 6.546875 -4.382812 6.953125 -4.203125 7.484375 -4.203125 C 8.023438 -4.203125 8.4375 -4.382812 8.71875 -4.75 C 9 -5.113281 9.140625 -5.578125 9.140625 -6.140625 L 9.140625 -14.5625 L 13.75 -14.5625 L 13.75 -6.109375 C 13.75 -5.171875 13.609375 -4.304688 13.328125 -3.515625 C 13.054688 -2.734375 12.65625 -2.054688 12.125 -1.484375 C 11.59375 -0.910156 10.9375 -0.457031 10.15625 -0.125 C 9.375 0.195312 8.484375 0.359375 7.484375 0.359375 C 6.492188 0.359375 5.609375 0.203125 4.828125 -0.109375 C 4.046875 -0.429688 3.390625 -0.882812 2.859375 -1.46875 C 2.328125 -2.050781 1.921875 -2.734375 1.640625 -3.515625 C 1.367188 -4.304688 1.234375 -5.171875 1.234375 -6.109375 L 1.234375 -14.5625 Z M 5.84375 -14.5625 "/></g></g></g><g fill="#000000" fill-opacity="1"><g transform="translate(214.136952, 87.076521)"><g><path d="M 5.28125 -14.5625 L 5.28125 -12.140625 L 5.328125 -12.140625 C 5.628906 -13.015625 6.082031 -13.632812 6.6875 -14 C 7.300781 -14.375 8.25 -14.5625 9.53125 -14.5625 L 9.53125 -10.1875 C 8.75 -10.125 8.125 -10.046875 7.65625 -9.953125 C 7.1875 -9.867188 6.820312 -9.71875 6.5625 -9.5 C 6.300781 -9.28125 6.125 -8.96875 6.03125 -8.5625 C 5.945312 -8.164062 5.90625 -7.640625 5.90625 -6.984375 L 5.90625 0 L 1.109375 0 L 1.109375 -14.5625 Z M 5.28125 -14.5625 "/></g></g></g><g fill="#000000" fill-opacity="1"><g transform="translate(224.115196, 87.076521)"><g><path d="M 13.75 0 L 9.140625 0 L 9.140625 -8.421875 C 9.140625 -8.984375 9 -9.445312 8.71875 -9.8125 C 8.4375 -10.1875 8.023438 -10.375 7.484375 -10.375 C 6.953125 -10.375 6.546875 -10.1875 6.265625 -9.8125 C 5.984375 -9.445312 5.84375 -8.984375 5.84375 -8.421875 L 5.84375 0 L 1.234375 0 L 1.234375 -8.453125 C 1.234375 -9.390625 1.367188 -10.253906 1.640625 -11.046875 C 1.921875 -11.835938 2.332031 -12.519531 2.875 -13.09375 C 3.414062 -13.675781 4.070312 -14.125 4.84375 -14.4375 C 5.613281 -14.757812 6.492188 -14.921875 7.484375 -14.921875 C 8.484375 -14.921875 9.375 -14.753906 10.15625 -14.421875 C 10.9375 -14.097656 11.59375 -13.648438 12.125 -13.078125 C 12.65625 -12.515625 13.054688 -11.832031 13.328125 -11.03125 C 13.609375 -10.226562 13.75 -9.367188 13.75 -8.453125 Z M 13.75 0 "/></g></g></g><g fill="#000000" fill-opacity="1"><g transform="translate(239.097553, 87.076521)"><g><path d="M 8.15625 -5.296875 L 6.328125 -8.1875 L 10.25 -10.765625 C 9.90625 -10.960938 9.582031 -11.09375 9.28125 -11.15625 C 8.988281 -11.226562 8.691406 -11.265625 8.390625 -11.265625 C 7.929688 -11.265625 7.515625 -11.160156 7.140625 -10.953125 C 6.773438 -10.742188 6.457031 -10.460938 6.1875 -10.109375 C 5.914062 -9.765625 5.703125 -9.363281 5.546875 -8.90625 C 5.398438 -8.457031 5.328125 -7.992188 5.328125 -7.515625 C 5.328125 -7.003906 5.414062 -6.523438 5.59375 -6.078125 C 5.78125 -5.640625 6.019531 -5.25 6.3125 -4.90625 C 6.613281 -4.570312 6.957031 -4.3125 7.34375 -4.125 C 7.738281 -3.9375 8.148438 -3.84375 8.578125 -3.84375 C 9.410156 -3.84375 10.226562 -4.144531 11.03125 -4.75 C 11.832031 -5.363281 12.441406 -6.148438 12.859375 -7.109375 L 16.296875 -5.328125 C 15.941406 -4.472656 15.484375 -3.695312 14.921875 -3 C 14.359375 -2.300781 13.726562 -1.703125 13.03125 -1.203125 C 12.332031 -0.703125 11.578125 -0.316406 10.765625 -0.046875 C 9.960938 0.222656 9.117188 0.359375 8.234375 0.359375 C 7.222656 0.359375 6.257812 0.15625 5.34375 -0.25 C 4.4375 -0.664062 3.640625 -1.226562 2.953125 -1.9375 C 2.265625 -2.644531 1.71875 -3.457031 1.3125 -4.375 C 0.914062 -5.289062 0.71875 -6.257812 0.71875 -7.28125 C 0.71875 -8.300781 0.914062 -9.269531 1.3125 -10.1875 C 1.71875 -11.101562 2.265625 -11.910156 2.953125 -12.609375 C 3.640625 -13.316406 4.4375 -13.878906 5.34375 -14.296875 C 6.257812 -14.710938 7.222656 -14.921875 8.234375 -14.921875 C 9.921875 -14.921875 11.335938 -14.5 12.484375 -13.65625 C 13.628906 -12.820312 14.59375 -11.695312 15.375 -10.28125 Z M 8.15625 -5.296875 "/></g></g></g><g fill="#000000" fill-opacity="1"><g transform="translate(255.757934, 87.076521)"><g><path d="M 5.8125 -14.5625 L 5.8125 -6.046875 C 5.8125 -5.492188 5.941406 -5.023438 6.203125 -4.640625 C 6.460938 -4.265625 6.910156 -4.078125 7.546875 -4.078125 C 7.910156 -4.078125 8.195312 -4.132812 8.40625 -4.25 C 8.613281 -4.375 8.769531 -4.539062 8.875 -4.75 C 8.988281 -4.957031 9.066406 -5.1875 9.109375 -5.4375 C 9.148438 -5.6875 9.171875 -5.953125 9.171875 -6.234375 L 9.171875 -14.5625 L 13.78125 -14.5625 L 13.78125 -5.09375 C 13.78125 -3.8125 13.457031 -2.726562 12.8125 -1.84375 C 12.164062 -0.957031 11.210938 -0.300781 9.953125 0.125 L 9.953125 6.296875 L 5.15625 6.296875 L 5.15625 0.125 C 2.519531 -0.675781 1.203125 -2.414062 1.203125 -5.09375 L 1.203125 -14.5625 Z M 5.8125 -14.5625 "/></g></g></g></svg>
